#Comment line ignore any data following # character 
#Hierarchical Translation and Rotation (.htr) file 
[Header]	
#Header keywords are followed by a single value 
FileType HTR		#Single word string
DataType HTRS		#Translation followed by rotation and scale data
FileVersion 1		#integer
NumSegments 84		#integer
NumFrames 2		#integer
DataFrameRate 30		#integer, data frame rate in this file
EulerRotationOrder ZYX
CalibrationUnits mm
RotationUnits Degrees
GlobalAxisofGravity Y
BoneLengthAxis Y
ScaleFactor 1.00
[SegmentNames&Hierarchy]
#CHILD	PARENT
MASTER GLOBAL
root MASTER
chest root
L_mid_tent01 root
R_mid_tent01 root
spine01 root
Bip01_Neck chest
L_humerus chest
R_humerus chest
weapon_bone chest
Bip01_Head Bip01_Neck
eye_left_bone Bip01_Head
eye_right_bone Bip01_Head
L_forearm L_humerus
L_front_hand L_forearm
L_weapon_bone L_forearm
L_front_hand01_01 L_front_hand
L_front_hand02_01 L_front_hand
L_front_hand03_01 L_front_hand
L_front_hand01_02 L_front_hand01_01
L_front_hand02_02 L_front_hand02_01
L_front_hand03_02 L_front_hand03_01
R_forearm R_humerus
R_front_hand R_forearm
R_weapon_bone R_forearm
R_front_hand01_01 R_front_hand
R_front_hand02_01 R_front_hand
R_front_hand03_01 R_front_hand
R_front_hand01_02 R_front_hand01_01
R_front_hand02_02 R_front_hand02_01
R_front_hand03_02 R_front_hand03_01
null_rope01_connect L_mid_tent01
Rope1_Seg01 null_rope01_connect
Rope1_Seg02 Rope1_Seg01
Rope1_Seg03 Rope1_Seg02
Rope1_Seg04 Rope1_Seg03
Rope1_Seg05 Rope1_Seg04
Rope1_Seg06 Rope1_Seg05
Rope1_Seg07 Rope1_Seg06
Rope1_Seg09 Rope1_Seg07
L_mid_hand01 Rope1_Seg09
L_mid_hand02 Rope1_Seg09
L_mid_hand03 Rope1_Seg09
null_rope02_connect R_mid_tent01
Rope2_Seg01 null_rope02_connect
Rope2_Seg02 Rope2_Seg01
Rope2_Seg03 Rope2_Seg02
Rope2_Seg04 Rope2_Seg03
Rope2_Seg05 Rope2_Seg04
Rope2_Seg06 Rope2_Seg05
Rope2_Seg07 Rope2_Seg06
Rope2_Seg09 Rope2_Seg07
R_mid_hand01 Rope2_Seg09
R_mid_hand02 Rope2_Seg09
R_mid_hand03 Rope2_Seg09
spine02 spine01
spine03 spine02
pelvis spine03
null_rope03_connect pelvis
null_rope04_connect pelvis
Rope3_Seg01 null_rope03_connect
Rope3_Seg02 Rope3_Seg01
Rope3_Seg03 Rope3_Seg02
Rope3_Seg04 Rope3_Seg03
Rope3_Seg05 Rope3_Seg04
Rope3_Seg06 Rope3_Seg05
Rope3_Seg07 Rope3_Seg06
Rope3_Seg08 Rope3_Seg07
Rope3_Seg09 Rope3_Seg08
R_rear_hand01 Rope3_Seg09
R_rear_hand02 Rope3_Seg09
R_rear_hand03 Rope3_Seg09
Rope4_Seg01 null_rope04_connect
Rope4_Seg02 Rope4_Seg01
Rope4_Seg03 Rope4_Seg02
Rope4_Seg04 Rope4_Seg03
Rope4_Seg05 Rope4_Seg04
Rope4_Seg06 Rope4_Seg05
Rope4_Seg07 Rope4_Seg06
Rope4_Seg08 Rope4_Seg07
Rope4_Seg09 Rope4_Seg08
L_rear_hand01 Rope4_Seg09
L_rear_hand02 Rope4_Seg09
L_rear_hand03 Rope4_Seg09
[BasePosition]
#SegmentName Tx, Ty, Tz, Rx, Ry, Rz, BoneLength
MASTER 0.000000 0.000000 0.000000 -90.000000 0.000000 0.000000 10.000000 
root 0.000000 0.000000 0.000000 0.000000 0.000000 0.000000 10.000000 
chest 0.000000 0.000000 0.000000 0.000000 0.000000 0.000000 10.000000 
L_mid_tent01 0.000000 0.000000 0.000000 0.000000 0.000000 0.000000 10.000000 
R_mid_tent01 0.000000 0.000000 0.000000 0.000000 0.000000 0.000000 10.000000 
spine01 0.000000 0.000000 0.000000 0.000000 0.000000 0.000000 10.000000 
Bip01_Neck 0.000000 0.000000 0.000000 0.000000 0.000000 0.000000 10.000000 
L_humerus 0.000000 0.000000 0.000000 0.000000 0.000000 0.000000 10.000000 
R_humerus 0.000000 0.000000 0.000000 0.000000 0.000000 0.000000 10.000000 
weapon_bone 0.000000 0.000000 0.000000 0.000000 0.000000 0.000000 10.000000 
Bip01_Head 0.000000 0.000000 0.000000 0.000000 0.000000 0.000000 10.000000 
eye_left_bone 0.000000 0.000000 0.000000 0.000000 0.000000 0.000000 10.000000 
eye_right_bone 0.000000 0.000000 0.000000 0.000000 0.000000 0.000000 10.000000 
L_forearm 0.000000 0.000000 0.000000 0.000000 0.000000 0.000000 10.000000 
L_front_hand 0.000000 0.000000 0.000000 0.000000 0.000000 0.000000 10.000000 
L_weapon_bone 0.000000 0.000000 0.000000 0.000000 0.000000 0.000000 10.000000 
L_front_hand01_01 0.000000 0.000000 0.000000 0.000000 0.000000 0.000000 10.000000 
L_front_hand02_01 0.000000 0.000000 0.000000 0.000000 0.000000 0.000000 10.000000 
L_front_hand03_01 0.000000 0.000000 0.000000 0.000000 0.000000 0.000000 10.000000 
L_front_hand01_02 0.000000 0.000000 0.000000 0.000000 0.000000 0.000000 10.000000 
L_front_hand02_02 0.000000 0.000000 0.000000 0.000000 0.000000 0.000000 10.000000 
L_front_hand03_02 0.000000 0.000000 0.000000 0.000000 0.000000 0.000000 10.000000 
R_forearm 0.000000 0.000000 0.000000 0.000000 0.000000 0.000000 10.000000 
R_front_hand 0.000000 0.000000 0.000000 0.000000 0.000000 0.000000 10.000000 
R_weapon_bone 0.000000 0.000000 0.000000 0.000000 0.000000 0.000000 10.000000 
R_front_hand01_01 0.000000 0.000000 0.000000 0.000000 0.000000 0.000000 10.000000 
R_front_hand02_01 0.000000 0.000000 0.000000 0.000000 0.000000 0.000000 10.000000 
R_front_hand03_01 0.000000 0.000000 0.000000 0.000000 0.000000 0.000000 10.000000 
R_front_hand01_02 0.000000 0.000000 0.000000 0.000000 0.000000 0.000000 10.000000 
R_front_hand02_02 0.000000 0.000000 0.000000 0.000000 0.000000 0.000000 10.000000 
R_front_hand03_02 0.000000 0.000000 0.000000 0.000000 0.000000 0.000000 10.000000 
null_rope01_connect 0.000000 0.000000 0.000000 0.000000 0.000000 0.000000 10.000000 
Rope1_Seg01 0.000000 0.000000 0.000000 0.000000 0.000000 0.000000 10.000000 
Rope1_Seg02 0.000000 0.000000 0.000000 0.000000 0.000000 0.000000 10.000000 
Rope1_Seg03 0.000000 0.000000 0.000000 0.000000 0.000000 0.000000 10.000000 
Rope1_Seg04 0.000000 0.000000 0.000000 0.000000 0.000000 0.000000 10.000000 
Rope1_Seg05 0.000000 0.000000 0.000000 0.000000 0.000000 0.000000 10.000000 
Rope1_Seg06 0.000000 0.000000 0.000000 0.000000 0.000000 0.000000 10.000000 
Rope1_Seg07 0.000000 0.000000 0.000000 0.000000 0.000000 0.000000 10.000000 
Rope1_Seg09 0.000000 0.000000 0.000000 0.000000 0.000000 0.000000 10.000000 
L_mid_hand01 0.000000 0.000000 0.000000 0.000000 0.000000 0.000000 10.000000 
L_mid_hand02 0.000000 0.000000 0.000000 0.000000 0.000000 0.000000 10.000000 
L_mid_hand03 0.000000 0.000000 0.000000 0.000000 0.000000 0.000000 10.000000 
null_rope02_connect 0.000000 0.000000 0.000000 0.000000 0.000000 0.000000 10.000000 
Rope2_Seg01 0.000000 0.000000 0.000000 0.000000 0.000000 0.000000 10.000000 
Rope2_Seg02 0.000000 0.000000 0.000000 0.000000 0.000000 0.000000 10.000000 
Rope2_Seg03 0.000000 0.000000 0.000000 0.000000 0.000000 0.000000 10.000000 
Rope2_Seg04 0.000000 0.000000 0.000000 0.000000 0.000000 0.000000 10.000000 
Rope2_Seg05 0.000000 0.000000 0.000000 0.000000 0.000000 0.000000 10.000000 
Rope2_Seg06 0.000000 0.000000 0.000000 0.000000 0.000000 0.000000 10.000000 
Rope2_Seg07 0.000000 0.000000 0.000000 0.000000 0.000000 0.000000 10.000000 
Rope2_Seg09 0.000000 0.000000 0.000000 0.000000 0.000000 0.000000 10.000000 
R_mid_hand01 0.000000 0.000000 0.000000 0.000000 0.000000 0.000000 10.000000 
R_mid_hand02 0.000000 0.000000 0.000000 0.000000 0.000000 0.000000 10.000000 
R_mid_hand03 0.000000 0.000000 0.000000 0.000000 0.000000 0.000000 10.000000 
spine02 0.000000 0.000000 0.000000 0.000000 0.000000 0.000000 10.000000 
spine03 0.000000 0.000000 0.000000 0.000000 0.000000 0.000000 10.000000 
pelvis 0.000000 0.000000 0.000000 0.000000 0.000000 0.000000 10.000000 
null_rope03_connect 0.000000 0.000000 0.000000 0.000000 0.000000 0.000000 10.000000 
null_rope04_connect 0.000000 0.000000 0.000000 0.000000 0.000000 0.000000 10.000000 
Rope3_Seg01 0.000000 0.000000 0.000000 0.000000 0.000000 0.000000 10.000000 
Rope3_Seg02 0.000000 0.000000 0.000000 0.000000 0.000000 0.000000 10.000000 
Rope3_Seg03 0.000000 0.000000 0.000000 0.000000 0.000000 0.000000 10.000000 
Rope3_Seg04 0.000000 0.000000 0.000000 0.000000 0.000000 0.000000 10.000000 
Rope3_Seg05 0.000000 0.000000 0.000000 0.000000 0.000000 0.000000 10.000000 
Rope3_Seg06 0.000000 0.000000 0.000000 0.000000 0.000000 0.000000 10.000000 
Rope3_Seg07 0.000000 0.000000 0.000000 0.000000 0.000000 0.000000 10.000000 
Rope3_Seg08 0.000000 0.000000 0.000000 0.000000 0.000000 0.000000 10.000000 
Rope3_Seg09 0.000000 0.000000 0.000000 0.000000 0.000000 0.000000 10.000000 
R_rear_hand01 0.000000 0.000000 0.000000 0.000000 0.000000 0.000000 10.000000 
R_rear_hand02 0.000000 0.000000 0.000000 0.000000 0.000000 0.000000 10.000000 
R_rear_hand03 0.000000 0.000000 0.000000 0.000000 0.000000 0.000000 10.000000 
Rope4_Seg01 0.000000 0.000000 0.000000 0.000000 0.000000 0.000000 10.000000 
Rope4_Seg02 0.000000 0.000000 0.000000 0.000000 0.000000 0.000000 10.000000 
Rope4_Seg03 0.000000 0.000000 0.000000 0.000000 0.000000 0.000000 10.000000 
Rope4_Seg04 0.000000 0.000000 0.000000 0.000000 0.000000 0.000000 10.000000 
Rope4_Seg05 0.000000 0.000000 0.000000 0.000000 0.000000 0.000000 10.000000 
Rope4_Seg06 0.000000 0.000000 0.000000 0.000000 0.000000 0.000000 10.000000 
Rope4_Seg07 0.000000 0.000000 0.000000 0.000000 0.000000 0.000000 10.000000 
Rope4_Seg08 0.000000 0.000000 0.000000 0.000000 0.000000 0.000000 10.000000 
Rope4_Seg09 0.000000 0.000000 0.000000 0.000000 0.000000 0.000000 10.000000 
L_rear_hand01 0.000000 0.000000 0.000000 0.000000 0.000000 0.000000 10.000000 
L_rear_hand02 0.000000 0.000000 0.000000 0.000000 0.000000 0.000000 10.000000 
L_rear_hand03 0.000000 0.000000 0.000000 0.000000 0.000000 0.000000 10.000000 
#Beginning of Data. Separated by tabs
#Fr	Tx	Ty	Tz	Rx	Ry	Rz	SF
[MASTER]
69 -418.401611 14003.743164 121.600853 0.001660 0.001660 0.001660 14010.520508
70 -298.471405 14449.081055 46.440521 0.001660 0.001660 0.001660 14452.238281
[root]
69 240.575729 -36.107388 1200.609009 -71.654205 -10.418774 -109.142395 1225.007080
70 221.013870 -29.808588 1229.477905 -67.208031 -11.231189 -110.335014 1249.540527
[chest]
69 -84.512650 -34.090519 0.000000 28.238741 0.899240 175.061615 91.129311
70 -84.512650 -34.090519 0.000000 27.771944 0.775449 175.909439 91.129311
[L_mid_tent01]
69 27.299675 22.179508 -249.918686 2.789314 5.423822 18.838886 252.381760
70 27.299683 22.179512 -249.918686 0.943820 2.872931 20.316595 252.381760
[R_mid_tent01]
69 23.228794 24.509907 226.238495 178.192108 -38.347477 59.664860 228.744751
70 23.228794 24.509907 226.238495 -177.352005 -40.397644 53.402210 228.744751
[spine01]
69 -0.361383 -0.195265 0.000000 -0.000001 -0.000007 22.052340 0.410763
70 -0.361383 -0.195265 0.000000 -0.000001 -0.000007 22.052340 0.410763
[Bip01_Neck]
69 165.484543 71.581718 0.000119 176.643677 -1.657967 43.431911 180.302734
70 165.484543 71.581718 0.000119 176.643677 -1.657967 43.431911 180.302734
[L_humerus]
69 -13.983130 -135.272980 -120.471481 164.225479 54.808197 -103.816910 181.680161
70 -13.983130 -135.272980 -120.471481 162.097504 60.547901 -106.035713 181.680161
[R_humerus]
69 -13.983309 -135.273102 125.287651 -173.866699 -51.457783 -90.767563 184.909012
70 -13.983309 -135.273102 125.287651 -173.266159 -57.105827 -91.504158 184.909012
[weapon_bone]
69 235.964890 -300.705902 0.000000 0.000000 -89.951546 -128.212341 382.234833
70 235.964890 -300.705902 0.000000 0.000000 -89.951546 -128.212341 382.234833
[Bip01_Head]
69 213.443588 185.715942 11.777342 19.339748 1.895456 -45.139194 283.173584
70 213.443512 185.715897 11.777318 19.746405 2.158761 -44.905418 283.173523
[eye_left_bone]
69 -24.626970 125.451866 -64.772606 0.000000 -90.000000 -99.840431 143.318359
70 -24.626970 125.451866 -64.772606 0.000000 -90.000000 -99.840431 143.318359
[eye_right_bone]
69 -24.626970 125.451866 64.327362 0.000000 -89.965736 80.156380 143.117676
70 -24.626970 125.451866 64.327362 0.000000 -89.965736 80.156380 143.117676
[L_forearm]
69 322.776093 0.000000 -0.000119 0.000403 -0.002312 -109.772705 322.776093
70 322.776093 0.000000 -0.000119 0.000402 -0.002313 -109.732964 322.776093
[L_front_hand]
69 241.149185 -0.042021 -3.300071 -178.667953 -1.835447 -27.422350 241.171753
70 241.149185 -0.042021 -3.300071 -178.667953 -1.835447 -27.422350 241.171753
[L_weapon_bone]
69 156.183838 0.000000 0.000000 0.000014 0.000007 0.000001 156.183838
70 156.183838 0.000000 0.000000 0.000014 0.000007 0.000001 156.183838
[L_front_hand01_01]
69 86.095154 20.947098 -0.655860 -0.366594 -0.477154 75.385574 88.609184
70 86.095154 20.947098 -0.655860 -0.366594 -0.477154 75.385574 88.609184
[L_front_hand02_01]
69 86.935165 -11.437475 24.513514 154.399796 -59.883835 -61.369587 91.046425
70 86.935165 -11.437475 24.513514 154.399796 -59.883835 -61.369587 91.046425
[L_front_hand03_01]
69 86.637497 -14.123976 -20.424902 -153.913849 58.118122 -62.702866 90.126129
70 86.637497 -14.123976 -20.424902 -153.913849 58.118122 -62.702866 90.126129
[L_front_hand01_02]
69 71.020905 -0.000179 0.000030 0.000334 -0.002323 -106.379684 71.020905
70 71.020905 -0.000179 0.000030 0.000334 -0.002323 -106.379684 71.020905
[L_front_hand02_02]
69 71.020927 -0.000119 0.000060 0.000334 -0.002323 -106.379684 71.020927
70 71.020927 -0.000119 0.000060 0.000334 -0.002323 -106.379684 71.020927
[L_front_hand03_02]
69 71.020905 -0.000060 0.000060 0.000334 -0.002323 -106.379684 71.020905
70 71.020905 -0.000060 0.000060 0.000334 -0.002323 -106.379684 71.020905
[R_forearm]
69 322.776428 -0.000060 0.000030 0.201899 0.065786 -108.419411 322.776428
70 322.776428 -0.000060 0.000030 0.201921 0.065719 -108.381073 322.776428
[R_front_hand]
69 238.847015 -0.006795 2.210259 -2.635298 -10.645461 -26.312506 238.857239
70 238.847015 -0.006795 2.210259 -2.635298 -10.645461 -26.312506 238.857239
[R_weapon_bone]
69 155.664093 0.002503 -0.000030 0.003487 0.001180 -90.988930 155.664078
70 155.664093 0.002503 -0.000030 0.003487 0.001180 -90.988930 155.664078
[R_front_hand01_01]
69 87.624611 14.231146 22.918642 -154.633499 -59.950619 61.746044 91.683487
70 87.624611 14.231146 22.918642 -154.633499 -59.950634 61.746063 91.683487
[R_front_hand02_01]
69 89.356956 14.367283 -19.491137 154.602661 58.302849 63.744389 92.579636
70 89.356956 14.367283 -19.491137 154.602661 58.302849 63.744389 92.579636
[R_front_hand03_01]
69 87.286232 -22.307278 -0.143439 0.162155 -0.423168 -75.767921 90.091743
70 87.286232 -22.307278 -0.143439 0.162155 -0.423168 -75.767906 90.091743
[R_front_hand01_02]
69 71.020905 0.000060 0.000119 0.002323 -0.000334 106.381714 71.020905
70 71.020905 0.000060 0.000119 0.002323 -0.000334 106.381714 71.020905
[R_front_hand02_02]
69 71.020844 -0.000030 -0.000119 0.002323 -0.000334 106.381714 71.020836
70 71.020844 -0.000030 -0.000119 0.002323 -0.000334 106.381714 71.020836
[R_front_hand03_02]
69 71.020905 0.000000 0.000030 0.002323 -0.000334 106.381714 71.020905
70 71.020905 0.000000 0.000030 0.002323 -0.000334 106.381714 71.020905
[null_rope01_connect]
69 328.732483 0.000000 -0.000238 -45.675171 -60.754280 129.826843 328.732483
70 328.732483 0.000000 -0.000238 -37.566116 -60.702171 122.031303 328.732483
[Rope1_Seg01]
69 0.000038 -0.001007 0.000153 79.261063 -6.721398 -108.380020 0.001019
70 0.000038 -0.001021 0.000153 58.226688 -6.510993 -116.659744 0.001033
[Rope1_Seg02]
69 139.999863 -0.000179 0.000000 0.502769 -0.471782 0.805777 139.999863
70 139.999863 -0.000179 0.000000 4.702047 0.987105 1.195551 139.999863
[Rope1_Seg03]
69 139.999924 0.000060 -0.000060 -7.278838 -3.018917 -0.267261 139.999924
70 139.999924 0.000060 -0.000060 -1.290134 0.101674 -0.771053 139.999924
[Rope1_Seg04]
69 139.999924 -0.000060 -0.000119 16.390377 3.417495 4.163780 139.999924
70 139.999924 -0.000060 -0.000119 21.061485 3.842395 5.786207 139.999924
[Rope1_Seg05]
69 139.999832 0.000119 -0.000060 14.160089 5.206488 2.095508 139.999832
70 139.999832 0.000119 -0.000060 17.505983 4.645535 3.797549 139.999832
[Rope1_Seg06]
69 139.999954 0.000119 -0.000060 3.478613 1.580693 0.306975 139.999954
70 139.999954 0.000119 -0.000060 4.706746 1.717326 0.651434 139.999954
[Rope1_Seg07]
69 139.999985 0.000060 0.000000 1.941559 0.949235 0.126565 139.999985
70 139.999985 0.000060 0.000000 2.616073 1.048473 0.302636 139.999985
[Rope1_Seg09]
69 121.602913 0.000119 -0.000089 -89.793175 -1.359789 0.847147 121.602913
70 121.602913 0.000119 -0.000089 -89.793175 -1.359789 0.847147 121.602913
[L_mid_hand01]
69 103.859421 1.038730 8.195221 130.544373 -67.584534 -38.866943 104.187431
70 103.859421 1.038730 8.195221 130.544373 -67.584534 -38.866943 104.187431
[L_mid_hand02]
69 105.572853 -4.139662 -10.864139 -168.923172 43.409309 -73.498886 106.211075
70 105.572853 -4.139662 -10.864139 -168.923172 43.409309 -73.498894 106.211075
[L_mid_hand03]
69 104.641464 17.579376 -3.913581 -6.012627 17.808174 74.893669 106.179977
70 104.641464 17.579376 -3.913581 -6.012626 17.808172 74.893661 106.179977
[null_rope02_connect]
69 328.732849 0.000179 -0.000119 -159.246475 44.601059 -32.081554 328.732849
70 328.732849 0.000179 -0.000119 -157.482239 39.188236 -38.513355 328.732849
[Rope2_Seg01]
69 0.000064 -0.000979 0.000000 -46.132896 -27.327543 -139.011261 0.000982
70 0.000064 -0.000995 0.000000 -44.791828 -23.239571 -142.025970 0.000998
[Rope2_Seg02]
69 139.999741 -0.000060 -0.000119 0.114637 -0.940746 2.508461 139.999756
70 139.999741 -0.000060 -0.000119 -0.024282 -1.694652 2.757321 139.999756
[Rope2_Seg03]
69 140.000107 0.000030 0.000000 0.239665 -1.207389 3.239164 140.000107
70 140.000107 0.000030 0.000000 0.082243 -2.183096 3.562194 140.000107
[Rope2_Seg04]
69 139.999802 0.000000 -0.000060 0.474268 -1.624969 4.368442 139.999802
70 139.999802 0.000000 -0.000060 0.301665 -3.244369 4.967085 139.999802
[Rope2_Seg05]
69 139.999985 -0.000060 0.000119 1.313670 -4.515447 9.146624 139.999985
70 139.999985 -0.000060 0.000119 0.933795 -7.752190 9.715901 139.999985
[Rope2_Seg06]
69 139.999893 -0.000030 -0.000119 2.437594 -1.659518 8.136432 139.999893
70 139.999893 -0.000030 -0.000119 1.994359 -0.058642 5.448820 139.999893
[Rope2_Seg07]
69 139.999893 0.000060 -0.000060 -0.381761 4.248330 -2.596114 139.999893
70 139.999893 0.000060 -0.000060 -0.046587 6.023563 -2.328644 139.999893
[Rope2_Seg09]
69 121.338966 0.000089 -0.000060 33.793236 -1.359788 -0.847141 121.338966
70 121.338966 0.000089 -0.000060 33.793236 -1.359788 -0.847141 121.338966
[R_mid_hand01]
69 104.680779 11.144459 -10.335981 -16.212063 45.237247 70.462852 105.778534
70 104.680779 11.144459 -10.335981 -16.212063 45.237247 70.462852 105.778534
[R_mid_hand02]
69 104.070427 2.443552 8.231699 49.067368 -67.749771 39.286453 104.424065
70 104.070427 2.443552 8.231699 49.067368 -67.749771 39.286453 104.424065
[R_mid_hand03]
69 106.028137 -11.221827 -5.996406 -177.101105 15.551026 -76.585571 106.788818
70 106.028137 -11.221827 -5.996406 -177.101105 15.551026 -76.585571 106.788818
[spine02]
69 129.756927 0.001550 0.000119 0.392669 -4.041442 -13.421016 129.756927
70 129.756927 0.001550 0.000119 0.388066 -4.041936 -13.360228 129.756927
[spine03]
69 78.613426 0.081760 -4.898863 1.915437 3.820561 16.786438 78.765953
70 78.613419 0.081761 -4.898861 1.913768 3.821900 16.754253 78.765945
[pelvis]
69 169.435242 0.051022 0.000000 0.029917 -0.188986 -14.034703 169.435257
70 169.435242 0.051022 0.000000 0.029999 -0.188973 -14.084538 169.435257
[null_rope03_connect]
69 -1.257226 -2.466202 137.391083 -37.761608 -65.425079 130.028244 137.418976
70 -1.257226 -2.466202 137.391083 -31.694988 -62.069195 125.792007 137.418976
[null_rope04_connect]
69 -1.259640 -2.480268 -137.844437 -37.761608 -65.425079 130.028244 137.872513
70 -1.259640 -2.480268 -137.844437 -31.694988 -62.069195 125.792007 137.872513
[Rope3_Seg01]
69 -0.000030 0.000000 -0.000125 5.998884 0.983810 -131.433777 0.000129
70 -0.000030 0.000000 -0.000127 1.244427 6.701138 -130.086166 0.000130
[Rope3_Seg02]
69 139.999924 -0.000119 0.000060 19.401728 -15.257632 11.427233 139.999924
70 139.999924 -0.000119 0.000060 19.905655 -18.378462 9.011442 139.999924
[Rope3_Seg03]
69 139.999924 -0.000119 0.000119 16.500454 -17.096458 27.116306 139.999924
70 139.999924 -0.000119 0.000119 20.026535 -26.314108 30.194744 139.999924
[Rope3_Seg04]
69 139.999924 0.000119 0.000000 4.964868 -7.740684 26.907625 139.999924
70 139.999924 0.000119 0.000000 4.810469 -10.711151 29.064566 139.999924
[Rope3_Seg05]
69 139.999924 -0.000238 0.000060 0.567841 0.983461 11.485426 139.999924
70 139.999924 -0.000238 0.000060 0.450308 0.644547 10.836824 139.999924
[Rope3_Seg06]
69 139.999893 -0.000119 -0.000060 0.761287 5.107516 7.675262 139.999893
70 139.999893 -0.000119 -0.000060 0.745118 4.936609 7.226480 139.999893
[Rope3_Seg07]
69 139.999771 0.000060 -0.000119 0.561971 4.242237 7.882950 139.999771
70 139.999771 0.000060 -0.000119 0.889412 5.012894 7.015343 139.999771
[Rope3_Seg08]
69 139.999985 -0.000060 0.000000 0.097573 2.324331 5.699685 139.999985
70 139.999985 -0.000060 0.000000 0.258891 2.287582 4.945179 139.999985
[Rope3_Seg09]
69 90.185997 -0.000179 -0.000060 89.793228 -1.359877 -0.847183 90.185997
70 90.185997 -0.000179 -0.000060 89.793228 -1.359877 -0.847183 90.185997
[R_rear_hand01]
69 103.366196 -6.073594 -10.757982 -177.714203 24.565960 -73.910950 104.101845
70 103.366196 -6.073594 -10.757982 -177.714203 24.565960 -73.910950 104.101845
[R_rear_hand02]
69 100.509819 12.039542 -7.992327 -12.874829 36.868488 72.167213 101.543350
70 100.509819 12.039542 -7.992327 -12.874829 36.868488 72.167213 101.543350
[R_rear_hand03]
69 101.539970 5.215704 5.435467 71.484581 -71.816628 21.513813 101.819031
70 101.539970 5.215704 5.435467 71.484581 -71.816628 21.513813 101.819031
[Rope4_Seg01]
69 -0.000006 -0.001007 -0.000153 -104.872078 -42.261646 -98.916603 0.001019
70 -0.000006 -0.001021 -0.000153 -104.065559 -46.770992 -101.599594 0.001033
[Rope4_Seg02]
69 139.999985 0.000060 0.000119 -0.952885 7.623980 -1.900892 139.999985
70 139.999985 0.000060 0.000119 -0.826097 8.272217 -1.639967 139.999985
[Rope4_Seg03]
69 139.999924 0.000000 -0.000238 -0.538840 9.557768 -2.723656 139.999924
70 139.999924 0.000000 -0.000238 -0.242436 10.856175 -2.202458 139.999924
[Rope4_Seg04]
69 139.999985 0.000000 0.000119 0.197220 8.809287 -4.676923 139.999985
70 139.999985 0.000000 0.000119 0.598182 8.256424 -4.245384 139.999985
[Rope4_Seg05]
69 139.999802 -0.000060 -0.000119 4.620485 28.226772 0.658824 139.999802
70 139.999802 -0.000060 -0.000119 4.285851 24.527300 -0.762910 139.999802
[Rope4_Seg06]
69 139.999924 0.000000 0.000060 8.893028 20.815121 0.342179 139.999924
70 139.999924 0.000000 0.000060 12.374956 26.019297 0.130344 139.999924
[Rope4_Seg07]
69 139.999802 0.000000 0.000000 7.689707 8.662453 -1.657071 139.999802
70 139.999802 0.000000 0.000000 11.647996 10.243415 -2.684661 139.999802
[Rope4_Seg08]
69 139.999924 0.000000 0.000119 3.941587 4.328789 -1.458783 139.999924
70 139.999924 0.000000 0.000119 6.766935 4.656174 -2.351050 139.999924
[Rope4_Seg09]
69 90.185791 0.000060 0.000060 -135.617828 2.228885 0.850567 90.185791
70 90.185791 0.000060 0.000060 -135.617828 2.228885 0.850567 90.185791
[L_rear_hand01]
69 101.696655 -8.392275 -7.654577 -12.874829 -36.868488 107.832764 102.329041
70 101.696655 -8.392275 -7.654577 -12.874829 -36.868488 107.832764 102.329041
[L_rear_hand02]
69 102.726799 -1.568258 5.773216 71.484581 71.816628 158.486160 102.900848
70 102.726799 -1.568258 5.773216 71.484581 71.816628 158.486160 102.900848
[L_rear_hand03]
69 104.552910 9.721220 -10.420293 -177.714203 -24.565960 -106.089035 105.519653
70 104.552910 9.721220 -10.420293 -177.714203 -24.565960 -106.089035 105.519653
